<?xml version="1.0" encoding="UTF-8"?><svg id="Calque_1" xmlns="http://www.w3.org/2000/svg" viewBox="0 0 201.4 177.72"><defs><style>.cls-1{fill:#2789ff;}</style></defs><path class="cls-1" d="M0,177.72V0h124.66c10.95,0,20.69.99,29.22,2.96,8.52,1.98,15.79,4.89,21.81,8.75,6.01,3.86,10.59,8.66,13.73,14.41,3.14,5.75,4.71,12.48,4.71,20.2,0,7.18-1.48,13.64-4.44,19.39-2.96,5.75-7.72,10.37-14.27,13.87-6.55,3.5-15.13,5.7-25.72,6.6v2.42c18.13.9,31.28,5.12,39.45,12.66,8.17,7.54,12.25,17.5,12.25,29.89,0,10.41-2.69,19.03-8.08,25.85-5.38,6.82-13.24,11.98-23.56,15.48-10.32,3.5-23.12,5.25-38.37,5.25H0ZM96.65,73.78h23.43c10.23,0,18.04-1.7,23.43-5.12,5.39-3.41,8.08-8.44,8.08-15.08,0-6.28-2.42-10.99-7.27-14.14-4.85-3.14-12.12-4.71-21.81-4.71h-25.85v39.04ZM96.65,142.71h32.85c9.16,0,16.24-1.66,21.27-4.98,5.02-3.32,7.54-8.03,7.54-14.14,0-6.82-2.83-11.89-8.48-15.21-5.65-3.32-14.14-4.98-25.45-4.98h-27.74v39.31Z"/></svg>